
            <svg xmlns="http://www.w3.org/2000/svg" xmlns:cc="http://creativecommons.org/ns#" xmlns:rdf="http://www.w3.org/1999/02/22-rdf-syntax-ns#" version="1.1" width="530.1563110351562" height="127.20317077636719">
              <defs>
                <style type="text/css">svg {
            background-color: #fff; }
          
          .root text,
          .root tspan {
            font: 12px Arial; }
          
          .root path {
            fill-opacity: 0;
            stroke-width: 2px;
            stroke: #000; }
          
          .root circle {
            fill: #6b6659;
            stroke-width: 2px;
            stroke: #000; }
          
          .anchor text, .any-character text {
            fill: #fff; }
          
          .anchor rect, .any-character rect {
            fill: #6b6659; }
          
          .escape text, .charset-escape text, .literal text {
            fill: #000; }
          
          .escape rect, .charset-escape rect {
            fill: #bada55; }
          
          .literal rect {
            fill: #dae9e5; }
          
          .charset .charset-box {
            fill: #cbcbba; }
          
          .subexp .subexp-label tspan,
          .charset .charset-label tspan,
          .match-fragment .repeat-label tspan {
            font-size: 10px; }
          
          .repeat-label {
            cursor: help; }
          
          .subexp .subexp-label tspan,
          .charset .charset-label tspan {
            dominant-baseline: text-after-edge; }
          
          .subexp .subexp-box {
            stroke: #908c83;
            stroke-dasharray: 6,2;
            stroke-width: 2px;
            fill-opacity: 0; }
          
          .quote {
            fill: #908c83; }
          </style>
              </defs>
              <metadata>
                <rdf:rdf>
                  <cc:license rdf:about="http://creativecommons.org/licenses/by/3.0/">
                    <cc:permits rdf:resource="http://creativecommons.org/ns#Reproduction"></cc:permits>
                    <cc:permits rdf:resource="http://creativecommons.org/ns#Distribution"></cc:permits>
                    <cc:requires rdf:resource="http://creativecommons.org/ns#Notice"></cc:requires>
                    <cc:requires rdf:resource="http://creativecommons.org/ns#Attribution"></cc:requires>
                    <cc:permits rdf:resource="http://creativecommons.org/ns#DerivativeWorks"></cc:permits>
                  </cc:license>
                </rdf:rdf>
              </metadata>
            <desc>Created with Snap</desc><g transform="matrix(1,0,0,1,15,5.75)" class="root"><g transform="matrix(1,0,0,1,10,0)" class="regexp match"><path d="M70.703125,56.320337499999994H105.7031M227.4375,56.3203375H277.4375M302.109375,56.3203375H327.1094M361.781275,56.3202864440918H381.7813"></path><g transform="matrix(1,0,0,1,0,44.6094)" class="match-fragment"><g class="label anchor"><rect width="70.703125" height="23.421875"></rect><text x="0" y="0" transform="matrix(1,0,0,1,5,16.7109)"><tspan>Start of line</tspan></text></g></g><g transform="matrix(1,0,0,1,80.7031,13.4219)" class="match-fragment"><path d="M0,42.8984375q10,0 10,-10v-18.6484375q0,-10 10,-10h131.73440551757812q10,0 10,10v18.6484375q0,10 10,10"></path><g transform="matrix(1,0,0,1,15,10)" class="subexp"><rect rx="3" ry="3" transform="matrix(1,0,0,1,0,11.1875)" width="141.73440551757812" height="43.421875" class="subexp-box"></rect><text x="0" y="0" transform="matrix(1,0,0,1,0,11.1875)" class="subexp-label"><tspan>group #1</tspan></text><g transform="matrix(1,0,0,1,10,21.1875)" class="regexp match"><path d="M38.359375,11.7109375H48.3594"></path><g transform="matrix(1,0,0,1,0,0)" class="match-fragment literal"><g class="label"><rect width="38.359375" height="23.421875" rx="3" ry="3"></rect><text x="0" y="0" transform="matrix(1,0,0,1,5,16.7109)"><tspan class="quote">“</tspan><tspan>+33</tspan><tspan class="quote">”</tspan></text></g></g><g transform="matrix(1,0,0,1,48.3594,0)" class="match-fragment escape"><g class="label"><rect width="73.375" height="23.421875" rx="3" ry="3"></rect><text x="0" y="0" transform="matrix(1,0,0,1,5,16.7109)"><tspan>white space</tspan></text></g></g></g></g></g><g transform="matrix(1,0,0,1,262.4375,34.6094)" class="match-fragment"><path d="M0,21.7109375q10,0 10,-10v-1.7109375q0,-10 10,-10h14.671875q10,0 10,10v1.7109375q0,10 10,10"></path><g transform="matrix(1,0,0,1,15,10)" class="literal"><g class="label"><rect width="24.671875" height="23.421875" rx="3" ry="3"></rect><text x="0" y="0" transform="matrix(1,0,0,1,5,16.7109)"><tspan class="quote">“</tspan><tspan>0</tspan><tspan class="quote">”</tspan></text></g></g></g><g transform="matrix(1,0,0,1,327.1094,14.2109)" class="match-fragment charset"><rect rx="3" ry="3" transform="matrix(1,0,0,1,0,11.1875)" width="34.671875" height="61.843772888183594" class="charset-box"></rect><text x="0" y="0" transform="matrix(1,0,0,1,0,11.1875)" class="charset-label"><tspan>One of:</tspan></text><g transform="matrix(1,0,0,1,5,16.1875)"><g transform="matrix(1,0,0,1,0,0)" class="literal"><g class="label"><rect width="24.671875" height="23.421875" rx="3" ry="3"></rect><text x="0" y="0" transform="matrix(1,0,0,1,5,16.7109)"><tspan class="quote">“</tspan><tspan>6</tspan><tspan class="quote">”</tspan></text></g></g><g transform="matrix(1,0,0,1,0,28.4219)" class="literal"><g class="label"><rect width="24.671875" height="23.421875" rx="3" ry="3"></rect><text x="0" y="0" transform="matrix(1,0,0,1,5,16.7109)"><tspan class="quote">“</tspan><tspan>7</tspan><tspan class="quote">”</tspan></text></g></g></g></g><g transform="matrix(1,0,0,1,371.7813,0)" class="match-fragment"><path d="M10,56.320335388183594q-10,0 -10,10v35.132835388183594q0,10 10,10h83.375q10,0 10,-10v-35.132835388183594q0,-10 -10,-10M103.375,71.3203353881836l5,-5m-5,5l-5,-5"></path><g transform="matrix(1,0,0,1,10,0)" class="charset"><rect rx="3" ry="3" transform="matrix(1,0,0,1,0,11.1875)" width="83.375" height="90.26567077636719" class="charset-box"></rect><text x="0" y="0" transform="matrix(1,0,0,1,0,11.1875)" class="charset-label"><tspan>One of:</tspan></text><g transform="matrix(1,0,0,1,5,16.1875)"><g transform="matrix(1,0,0,1,5.0156,0)" class="charset-range"><text x="0" y="0" transform="matrix(1,0,0,1,29.6719,15.875)">-</text><g transform="matrix(1,0,0,1,0,0)" class="literal"><g class="label"><rect width="24.671875" height="23.421875" rx="3" ry="3"></rect><text x="0" y="0" transform="matrix(1,0,0,1,5,16.7109)"><tspan class="quote">“</tspan><tspan>0</tspan><tspan class="quote">”</tspan></text></g></g><g transform="matrix(1,0,0,1,38.6719,0)" class="literal"><g class="label"><rect width="24.671875" height="23.421875" rx="3" ry="3"></rect><text x="0" y="0" transform="matrix(1,0,0,1,5,16.7109)"><tspan class="quote">“</tspan><tspan>9</tspan><tspan class="quote">”</tspan></text></g></g></g><g transform="matrix(1,0,0,1,26.0234,28.4219)" class="literal"><g class="label"><rect width="21.328125" height="23.421875" rx="3" ry="3"></rect><text x="0" y="0" transform="matrix(1,0,0,1,5,16.7109)"><tspan class="quote">“</tspan><tspan>.</tspan><tspan class="quote">”</tspan></text></g></g><g transform="matrix(1,0,0,1,0,56.8438)" class="charset-escape"><g class="label"><rect width="73.375" height="23.421875" rx="3" ry="3"></rect><text x="0" y="0" transform="matrix(1,0,0,1,5,16.7109)"><tspan>white space</tspan></text></g></g></g></g></g></g><path d="M10,56.320337499999994H0M475.1563,56.320337499999994H500.15631103515625"></path><circle cx="0" cy="56.320337499999994" r="5"></circle><circle cx="500.15631103515625" cy="56.320337499999994" r="5"></circle></g></svg>
          